<svg width="25" height="24" viewBox="0 0 25 24" fill="none" xmlns="http://www.w3.org/2000/svg">
<path d="M6.11 5L11.873 10.763C12.0368 10.9247 12.1669 11.1173 12.2557 11.3296C12.3444 11.542 12.3901 11.7698 12.3901 12C12.3901 12.2302 12.3444 12.458 12.2557 12.6704C12.1669 12.8827 12.0368 13.0753 11.873 13.237L6.11 19M13.11 5L18.873 10.763C19.0367 10.9247 19.1667 11.1174 19.2554 11.3297C19.3441 11.542 19.3897 11.7699 19.3897 12C19.3897 12.2301 19.3441 12.458 19.2554 12.6703C19.1667 12.8826 19.0367 13.0753 18.873 13.237L13.11 19" stroke="black" stroke-width="1.5" stroke-linecap="round" stroke-linejoin="round"/>
</svg>
