<svg width="46" height="46" viewBox="0 0 46 46" fill="none" xmlns="http://www.w3.org/2000/svg">
<path d="M41.5312 19.0312H40.6594C40.1828 19.0386 39.7107 18.938 39.2784 18.7371C38.8461 18.5362 38.4649 18.2402 38.1633 17.8711L35.6109 14.5945C35.1287 13.9975 34.5177 13.5173 33.8237 13.1897C33.1296 12.8622 32.3705 12.6958 31.6031 12.7031H21.7875C20.7833 12.6974 19.799 12.9832 18.9539 13.5258L15.1922 15.9445C15.8393 16.3653 16.4403 16.8531 16.9852 17.4L19.2562 19.6711C20.1665 20.5859 21.2492 21.3112 22.4416 21.8048C23.6341 22.2984 24.9126 22.5506 26.2031 22.5469H28.875V21.239C28.8697 21.1114 28.8964 20.9845 28.9525 20.8698C29.0087 20.7552 29.0926 20.6563 29.1967 20.5823C29.3008 20.5082 29.4217 20.4614 29.5484 20.4459C29.6752 20.4304 29.8038 20.4469 29.9227 20.4937L34.725 22.5117C34.8678 22.5751 34.9892 22.6787 35.0744 22.8097C35.1596 22.9407 35.2049 23.0937 35.2049 23.25C35.2049 23.4063 35.1596 23.5592 35.0744 23.6903C34.9892 23.8213 34.8678 23.9248 34.725 23.9883L29.9227 26.0062C29.8038 26.0531 29.6752 26.0695 29.5484 26.0541C29.4217 26.0386 29.3008 25.9917 29.1967 25.9177C29.0926 25.8437 29.0087 25.7448 28.9525 25.6301C28.8964 25.5154 28.8697 25.3885 28.875 25.2609V23.9531H26.2031C24.728 23.9574 23.2667 23.6688 21.904 23.1039C20.5413 22.539 19.3043 21.7092 18.2648 20.6625L15.9938 18.3914C15.3666 17.7638 14.6569 17.2245 13.8844 16.7883L11.557 18.2789C10.7309 18.8064 9.80847 19.1648 8.84297 19.3336L5.7 19.9031C4.93013 20.0154 4.22409 20.3943 3.70497 20.9738C3.18586 21.5533 2.8866 22.2967 2.85938 23.0742V26.7656C2.85971 27.6979 3.23021 28.5919 3.88945 29.2512C4.54868 29.9104 5.4427 30.2809 6.375 30.2812H7.13437C7.30119 31.2645 7.81069 32.1569 8.57259 32.8004C9.33448 33.444 10.2996 33.797 11.2969 33.797C12.2942 33.797 13.2593 33.444 14.0212 32.8004C14.7831 32.1569 15.2926 31.2645 15.4594 30.2812H29.6344C29.7403 30.8944 29.9798 31.4767 30.3358 31.9871C30.6918 32.4974 31.1557 32.9232 31.6945 33.2344C32.3307 33.6044 33.0539 33.7986 33.7898 33.7969C34.6325 33.7881 35.4577 33.5551 36.1805 33.1219C36.6957 32.8209 37.1312 32.4008 37.4505 31.8967C37.7698 31.3927 37.9636 30.8194 38.0156 30.225C40.4977 29.8734 43.6406 27.9047 43.6406 25.3101V21.1406C43.639 20.5817 43.4162 20.0461 43.021 19.6509C42.6258 19.2556 42.0902 19.0329 41.5312 19.0312ZM15.1922 15.9445L13.8844 16.7883C12.4097 15.9512 10.7425 15.5126 9.04688 15.5156H3.5625C3.37602 15.5156 3.19718 15.4415 3.06532 15.3097C2.93345 15.1778 2.85938 14.999 2.85938 14.8125C2.85938 14.626 2.93345 14.4472 3.06532 14.3153C3.19718 14.1834 3.37602 14.1094 3.5625 14.1094H9.04688C11.2313 14.1031 13.3689 14.7415 15.1922 15.9445Z" fill="white"/>
</svg>
