<svg width="20" height="18" viewBox="0 0 20 18" fill="none" xmlns="http://www.w3.org/2000/svg">
<path d="M17.5 9.57205L10 17.0001L2.5 9.57205C2.0053 9.09067 1.61564 8.51207 1.35554 7.87269C1.09545 7.23331 0.970558 6.54701 0.988733 5.85699C1.00691 5.16697 1.16776 4.48819 1.46115 3.86339C1.75455 3.23859 2.17413 2.68131 2.69348 2.22663C3.21283 1.77196 3.8207 1.42974 4.47881 1.22154C5.13691 1.01333 5.831 0.943639 6.51736 1.01686C7.20373 1.09007 7.8675 1.30461 8.46687 1.64696C9.06625 1.98931 9.58824 2.45205 10 3.00605C10.4135 2.45608 10.9361 1.99738 11.5351 1.65866C12.1341 1.31994 12.7965 1.1085 13.4809 1.03757C14.1654 0.966645 14.8571 1.03775 15.5128 1.24645C16.1685 1.45514 16.774 1.79693 17.2915 2.25042C17.8091 2.70391 18.2274 3.25934 18.5204 3.88195C18.8134 4.50456 18.9747 5.18094 18.9943 5.86876C19.0139 6.55659 18.8913 7.24105 18.6341 7.8793C18.377 8.51756 17.9909 9.09588 17.5 9.57805" stroke="white" stroke-linecap="round" stroke-linejoin="round"/>
</svg>
