<svg xmlns="http://www.w3.org/2000/svg" id="Capa_2" data-name="Capa 2" viewBox="0 0 513.99 448.25"><defs><style>      .cls-1 {        fill: #183e75;        stroke-width: 0px;      }    </style></defs><g id="Capa_1-2" data-name="Capa 1"><path class="cls-1" d="m257,0C44.21,0-11.69,77.46,1.93,229.66c13.66,152.49,69.09,218.58,255.07,218.58s241.41-66.1,255.07-218.58C525.68,77.48,469.78,0,257,0Zm243.63,228.62c-7.07,78.87-25.33,127.9-59.22,158.98-36.52,33.49-95.12,49.08-184.41,49.08s-147.89-15.59-184.41-49.08c-33.9-31.07-52.15-80.11-59.2-158.98-6.68-74.35,4.45-124.63,34.95-158.22C84.33,30.8,150.38,11.54,257,11.54s172.66,19.27,208.66,58.88c30.51,33.59,41.63,83.87,34.97,158.2ZM257.05,23.12C65.9,23.12,14.55,91.94,26.89,229.08c12.33,136.74,62.41,196.03,230.16,196.03s217.84-59.28,230.16-196.03c12.34-137.15-39-205.96-230.16-205.96Zm-21.36,381.02c-66.11-2.36-110.38-15.57-138.37-41.16-28.43-25.98-43.81-67.86-49.94-135.74-5.72-63.59,3.42-106.11,28.74-133.81,13.73-15.02,33.3-26.53,58.84-34.71,1.3-.42,2.66.56,2.66,1.95v125.24c0,20.84,5.24,41.35,15.21,59.66l84.74,155.58c.76,1.37-.31,3.07-1.87,3Zm16.84-141.91c-13.49-27.86-54.72-114.51-92.02-207.69-.47-1.18.22-2.52,1.46-2.78,26.62-5.37,58.21-8.09,95.07-8.09s68.46,2.73,95.08,8.09c1.24.26,1.93,1.6,1.45,2.78-37.29,93.18-78.51,179.83-91.99,207.69-1.85,3.81-7.24,3.81-9.06,0Zm214.2-34.99c-6.12,67.88-21.52,109.76-49.94,135.74-27.99,25.6-72.29,38.8-138.37,41.18-1.57.05-2.63-1.64-1.88-3.01l84.75-155.58c9.97-18.31,15.2-38.82,15.2-59.66V60.67c0-1.39,1.35-2.37,2.66-1.95,25.55,8.18,45.11,19.69,58.85,34.71,25.33,27.7,34.46,70.22,28.73,133.81Z"></path></g></svg>